# xmcd CD database file
#
# Track frame offsets:
#	150
#	19167
#	34350
#	46047
#	58225
#	72060
#	86890
#	98725
#	110532
#	123270
#
# Disc length: 1794 seconds
#
# Revision: 1
# Processed by: cddbd v1.5.2PL0 Copyright (c) Steve Scherf et al.
# Submitted via: CDex 1.70beta2
#
DISCID=8307000a
DTITLE=Merle Haggard - The Epic Collection (recorded live)
DYEAR=1989
DGENRE=Country
TTITLE0=Medley: Honky Tonk Night Time Man/Old Man From The Mountain
TTITLE1=Holding Things Together
TTITLE2=Sing A Sad Song
TTITLE3=Every Fool Has A Rainbow
TTITLE4=Blue Yodel # 2
TTITLE5=Trouble In Mind
TTITLE6=Things Aren't Funny Anymore
TTITLE7=(My Friends Are Gonna Be) Strangers
TTITLE8=I Always Get Lucky With You
TTITLE9=Workin' Man Blues
EXTD=YEAR: 1989
EXTT0=
EXTT1=
EXTT2=
EXTT3=
EXTT4=
EXTT5=
EXTT6=
EXTT7=
EXTT8=
EXTT9=
PLAYORDER=
